<svg width="1200" height="800" viewBox="0 0 1200 800" fill="none" xmlns="http://www.w3.org/2000/svg">
  <rect width="1200" height="800" fill="#F8F4FF"/>
  <g stroke="#E9D5FF" stroke-width="1">
    <path d="M0 50H1200M0 100H1200M0 150H1200M0 200H1200M0 250H1200M0 300H1200M0 350H1200M0 400H1200M0 450H1200M0 500H1200M0 550H1200M0 600H1200M0 650H1200M0 700H1200M0 750H1200"/>
    <path d="M50 0V800M100 0V800M150 0V800M200 0V800M250 0V800M300 0V800M350 0V800M400 0V800M450 0V800M500 0V800M550 0V800M600 0V800M650 0V800M700 0V800M750 0V800M800 0V800M850 0V800M900 0V800M950 0V800M1000 0V800M1050 0V800M1100 0V800M1150 0V800"/>
  </g>
</svg>
